<svg width="103" height="102" viewBox="0 0 103 102" fill="none" xmlns="http://www.w3.org/2000/svg">
<rect x="-4.02358" y="-3.97444" width="94.2321" height="92.4927" rx="46.2464" transform="matrix(0.99998 -0.00637236 0.0059158 0.999982 8.17089 8.88951)" fill="#0A0028"/>
<path d="M51.3965 30.1076C58.3089 30.0636 59.1205 30.0886 61.8533 30.192C64.3806 30.2866 65.7491 30.6905 66.6653 31.0369C67.88 31.4921 68.746 32.03 69.655 32.9099C70.5641 33.7898 71.134 34.6315 71.6033 35.8161C71.9578 36.7096 72.3971 38.0453 72.5247 40.5203C72.6638 43.1964 72.6993 43.9913 72.7394 50.7642C72.7794 57.5372 72.7533 58.3324 72.6459 61.0102C72.5476 63.4866 72.1344 64.8277 71.7802 65.7257C71.3148 66.9163 70.7651 67.7651 69.8665 68.6565C68.9679 69.5479 68.1084 70.1069 66.8991 70.5675C65.987 70.9155 64.6235 71.3469 62.0975 71.4737C59.3661 71.6119 58.5549 71.6472 51.6425 71.6913C44.7302 71.7353 43.9186 71.7103 41.1858 71.6069C38.6585 71.5123 37.29 71.1084 36.3738 70.762C35.1591 70.3068 34.2931 69.7689 33.384 68.889C32.475 68.0091 31.9051 67.1674 31.4358 65.9828C31.0813 65.0894 30.642 63.7536 30.5144 61.2786C30.3753 58.6025 30.3398 57.8076 30.2997 51.0347C30.2597 44.2617 30.2858 43.4665 30.3932 40.7887C30.4915 38.3123 30.9047 36.9712 31.2589 36.0732C31.7243 34.8827 32.274 34.0338 33.1726 33.1424C34.0712 32.251 34.9307 31.692 36.14 31.2314C37.0521 30.8834 38.4156 30.452 40.9416 30.3252C43.6729 30.177 44.4945 30.1516 51.3965 30.1076ZM51.3695 25.5387C44.3442 25.5834 43.461 25.6193 40.6989 25.7576C37.947 25.8959 36.0699 26.3407 34.4303 26.9751C32.7291 27.63 31.2964 28.5148 29.8668 29.9329C28.4372 31.3509 27.5622 32.7756 26.9045 34.4404C26.2772 36.0546 25.8464 37.8991 25.7392 40.6071C25.6319 43.3049 25.6062 44.1706 25.6469 51.0543C25.6876 57.9379 25.7236 58.8032 25.8628 61.5096C26.0021 64.2059 26.4546 66.0447 27.101 67.661C27.7682 69.3274 28.6701 70.7306 30.1164 72.1304C31.5627 73.5301 33.016 74.3864 34.7146 75.0297C36.3616 75.6432 38.2438 76.064 41.0074 76.1671C43.771 76.2703 44.6442 76.2949 51.6798 76.2501C58.7154 76.2053 59.5883 76.1695 62.3504 76.0311C65.1023 75.8928 66.9794 75.4481 68.6293 74.8136C70.3305 74.1587 71.7632 73.274 73.1928 71.8559C74.6224 70.4378 75.4973 69.0131 76.1551 67.3484C76.7824 65.7341 77.2132 63.8896 77.3204 61.1817C77.4276 58.4737 77.4534 57.6181 77.4126 50.7244C77.3718 43.8307 77.3359 42.9755 77.1967 40.2691C77.0575 37.5728 76.6049 35.7339 75.9585 34.1177C75.2913 32.4513 74.3894 31.0481 72.9431 29.6483C71.4969 28.2485 70.0435 27.3923 68.345 26.7489C66.6979 26.1354 64.8158 25.7147 62.0522 25.6115C59.2783 25.5185 58.3949 25.4939 51.3695 25.5387Z" fill="white"/>
<path d="M51.4425 37.8769C44.109 37.9236 38.1863 43.7885 38.2289 50.9841C38.2715 58.1797 44.2528 63.9688 51.5966 63.922C58.9403 63.8752 64.8527 58.0103 64.8101 50.8147C64.7676 43.6191 58.7862 37.8301 51.4425 37.8769ZM51.5695 59.3429C46.8037 59.3733 42.9195 55.6139 42.8919 50.9443C42.8642 46.2747 46.7037 42.4661 51.4694 42.4358C56.2352 42.4054 60.1194 46.1648 60.1471 50.8344C60.1747 55.504 56.3352 59.3126 51.5695 59.3429Z" fill="white"/>
<path d="M65.2718 40.3048C66.9849 40.2939 68.3656 38.9243 68.3557 37.2458C68.3457 35.5672 66.949 34.2153 65.2359 34.2263C63.5228 34.2372 62.1421 35.6068 62.152 37.2853C62.1619 38.9638 63.5587 40.3157 65.2718 40.3048Z" fill="white"/>
<rect x="-4.02358" y="-3.97444" width="94.2321" height="92.4927" rx="46.2464" transform="matrix(0.99998 -0.00637236 0.0059158 0.999982 8.17089 8.88951)" stroke="#0A0028" stroke-width="8"/>
</svg>
