<svg width="103" height="101" viewBox="0 0 103 101" fill="none" xmlns="http://www.w3.org/2000/svg">
<rect x="-3.98552" y="-4.01581" width="94.2322" height="92.4927" rx="46.2463" transform="matrix(0.999992 0.00395964 -0.00361161 0.999994 8.45434 8.3368)" fill="#0A66C2"/>
<path d="M71.7286 27.5826L31.3034 27.4225C30.3748 27.4188 29.483 27.7767 28.8241 28.4174C28.1652 29.0582 27.7932 29.9293 27.7899 30.8391L27.6469 70.4489C27.6436 71.3587 28.0093 72.2327 28.6635 72.8787C29.3178 73.5246 30.207 73.8895 31.1355 73.8932L71.5607 74.0533C72.4893 74.057 73.3811 73.6991 74.04 73.0583C74.6989 72.4176 75.0709 71.5465 75.0742 70.6367L75.2172 31.0269C75.2205 30.1171 74.8548 29.2431 74.2005 28.5971C73.5463 27.9512 72.6571 27.5862 71.7286 27.5826ZM41.7953 67.0518L34.6647 67.0236L34.7449 44.8306L41.8755 44.8588L41.7953 67.0518ZM38.3163 41.7693C37.5075 41.7616 36.719 41.5193 36.0504 41.0731C35.3817 40.6268 34.8628 39.9965 34.5592 39.2617C34.2557 38.527 34.181 37.7207 34.3446 36.9446C34.5082 36.1685 34.9029 35.4575 35.4786 34.9011C36.0544 34.3448 36.7856 33.9681 37.5799 33.8187C38.3742 33.6692 39.1959 33.7537 39.9415 34.0614C40.687 34.3691 41.323 34.8863 41.769 35.5477C42.2151 36.209 42.4513 36.9849 42.4478 37.7775C42.4535 38.3081 42.3501 38.8344 42.1438 39.3249C41.9375 39.8155 41.6325 40.2603 41.247 40.6328C40.8614 41.0053 40.4033 41.2979 39.8998 41.4931C39.3963 41.6884 38.8578 41.7823 38.3163 41.7693ZM68.0779 67.1753L60.9506 67.1471L60.9944 55.0227C61.0073 51.4471 59.46 50.3372 57.4575 50.3293C55.3431 50.3209 53.2625 51.8746 53.2509 55.0824L53.2074 67.1164L46.0769 67.0882L46.157 44.8919L53.0142 44.9191L53.0031 47.9945L53.0953 47.9949C53.7886 46.6326 56.2079 44.3089 59.8869 44.3235C63.8655 44.3392 68.1552 46.6701 68.1307 53.4471L68.0779 67.1753Z" fill="white"/>
<rect x="-3.98552" y="-4.01581" width="94.2322" height="92.4927" rx="46.2463" transform="matrix(0.999992 0.00395964 -0.00361161 0.999994 8.45434 8.3368)" stroke="#0A0028" stroke-width="8"/>
</svg>
