<svg viewBox="0 0 1387 1024" fill="none" xmlns="http://www.w3.org/2000/svg">
<g id="Line waves escobar">
<path id="Vector 8" d="M1961 -50.7323C1547.86 8.3417 1547.54 544.383 1120.44 304.828C499.617 -43.3812 860.845 -1465.17 1321.94 -1658.45C1760.13 -1842.12 1601.52 -1192.86 1937.78 -923.344C2342.83 -598.701 2374.14 -109.806 1961 -50.7323Z" stroke="#A3A3A3" stroke-width="0.778224"/>
<path id="Vector 13" d="M1919.68 111.945C1458.08 95.4686 1380.11 707.567 946.447 347.219C316.085 -176.57 918.093 -1726.87 1451.71 -1853.91C1958.83 -1974.65 1690.87 -1265.41 2020.59 -889.3C2417.75 -436.261 2381.29 128.421 1919.68 111.945Z" stroke="#A3A3A3" stroke-width="0.778224"/>
<path id="Vector 14" d="M1884.21 211.778C1397.48 142.664 1266.59 796.199 836.621 358.171C211.63 -278.531 970.846 -1888.83 1545.08 -1966.98C2090.79 -2041.25 1751.34 -1303.73 2070.16 -860.207C2454.2 -325.959 2370.95 280.892 1884.21 211.778Z" stroke="#A3A3A3" stroke-width="0.778224"/>
<path id="Vector 9" d="M1839.44 -101.904C1488.5 -85.2342 1456.5 375.687 1111.51 134.409C610.044 -216.304 998.012 -1409.07 1397.22 -1537.18C1776.59 -1658.93 1604.76 -1113.72 1871.58 -854.188C2192.99 -541.564 2190.37 -118.573 1839.44 -101.904Z" stroke="#A3A3A3" stroke-width="0.778224"/>
<path id="Vector 10" d="M1695.63 -128.957C1399.84 -149.615 1340.22 244.367 1067.75 2.02888C671.692 -350.226 1082.14 -1339.32 1426.37 -1409.87C1753.5 -1476.92 1570.51 -1024.27 1776.07 -773.994C2023.67 -472.53 1991.42 -108.299 1695.63 -128.957Z" stroke="#A3A3A3" stroke-width="0.778224"/>
<path id="Vector 11" d="M1600.25 -155.334C1360.95 -200.154 1286.28 123.028 1080.67 -104.59C781.807 -435.447 1181.43 -1222.48 1466.2 -1249.25C1736.83 -1274.69 1557.89 -914.053 1708.52 -686.056C1889.97 -411.422 1839.55 -110.513 1600.25 -155.334Z" stroke="#A3A3A3" stroke-width="0.778224"/>
<path id="Vector 12" d="M1475.97 -202.821C1306.68 -267.626 1222.74 -33.7687 1094.75 -231.954C908.697 -520.029 1270.97 -1061.29 1479.81 -1044.54C1678.29 -1028.62 1515.31 -780.058 1603.43 -588.715C1709.58 -358.234 1645.25 -138.017 1475.97 -202.821Z" stroke="#A3A3A3" stroke-width="0.778224"/>
<path id="Vector 16" d="M2001.72 -1490.82C2002.26 -1163.94 2248.21 -722.049 2349.01 -578.228M1725.02 331.122C1521.97 354.044 1013.7 813.633 759.135 437.577M1085.66 -1803.46C820.889 -1488.98 531.688 -807.693 537.272 -510.36" stroke="#A3A3A3" stroke-width="0.778224"/>
<path id="Vector 17" d="M1619.51 -2046.43C1337.35 -2042.69 1097.21 -1948.01 834.441 -1525M561.925 118.612C567.086 254.801 701.558 539.852 846.041 611.047" stroke="#A3A3A3" stroke-width="0.778224"/>
</g>
</svg>
