<svg width="103" height="102" viewBox="0 0 103 102" fill="none" xmlns="http://www.w3.org/2000/svg">
<rect x="-3.95751" y="-4.04574" width="94.2327" height="92.4923" rx="46.2461" transform="matrix(0.999933 0.0114902 -0.0105559 0.999945 9.17358 8.4559)" fill="#1ED760"/>
<path d="M52.1739 23.6914C36.6971 23.5136 24.0204 35.6621 23.8603 50.8279C23.7002 65.9937 36.1174 78.4305 51.5942 78.6084C67.0709 78.7862 79.7477 66.6377 79.9078 51.4719C80.0678 36.3061 67.6506 23.8692 52.1739 23.6914ZM65.4282 63.4316C64.9699 64.2073 64.1373 64.6371 63.2838 64.6273C62.8847 64.6227 62.4739 64.5202 62.0981 64.31C58.6197 62.3477 54.8192 61.1265 50.794 60.6803C46.7602 60.2375 42.7689 60.5931 38.9264 61.7473C37.6441 62.1324 36.2757 61.4248 35.8813 60.1657C35.4827 58.9046 36.206 57.5693 37.4925 57.1822C41.9741 55.8352 46.637 55.4132 51.3366 55.9357C56.0278 56.4581 60.4631 57.8822 64.5241 60.1724C65.6935 60.8274 66.0985 62.2876 65.4282 63.4316ZM68.8706 55.1298C68.4289 55.9415 67.5747 56.4002 66.6958 56.3901C66.3137 56.3857 65.9324 56.2956 65.5735 56.1064C61.2954 53.8619 56.6646 52.4493 51.7995 51.9091C46.8963 51.3605 42.0301 51.7336 37.3286 53.0044C36.0297 53.3498 34.6872 52.6087 34.3311 51.336C33.9709 50.0653 34.7321 48.7509 36.0267 48.4C41.3331 46.966 46.824 46.5501 52.3423 47.1628C57.8223 47.7733 63.0458 49.3646 67.8728 51.8983C69.0553 52.5214 69.5071 53.9679 68.8706 55.1298ZM70.1582 48.2051C69.793 48.2009 69.4245 48.1159 69.0739 47.9422C63.9965 45.3898 58.5228 43.7736 52.8009 43.1383C47.0706 42.4974 41.3593 42.8761 35.8199 44.258C34.5171 44.5809 33.1918 43.8104 32.8571 42.5313C32.5224 41.2538 33.309 39.9534 34.6161 39.6285C40.726 38.1042 47.0322 37.6911 53.3478 38.3936C59.6551 39.0923 65.6918 40.8764 71.293 43.6924C72.4926 44.2945 72.9658 45.735 72.3546 46.9072C71.9212 47.7415 71.0541 48.2154 70.1582 48.2051Z" fill="white"/>
<rect x="-3.95751" y="-4.04574" width="94.2327" height="92.4923" rx="46.2461" transform="matrix(0.999933 0.0114902 -0.0105559 0.999945 9.17358 8.4559)" stroke="#0A0028" stroke-width="8"/>
</svg>
