<svg viewBox="0 0 103 101" fill="none" xmlns="http://www.w3.org/2000/svg">
<g id="Twitter">
<rect x="-4.06051" y="-3.93349" width="94.2328" height="92.4921" rx="46.2461" transform="matrix(0.999865 -0.0165089 0.0152632 0.999882 7.94999 8.72187)" fill="#1D9BF0"/>
<path id="Vector" d="M44.0968 72.7312C63.2163 72.4155 73.4337 56.7192 73.2283 43.2655C73.2215 42.8219 73.2148 42.3784 73.1868 41.9563C75.191 40.4867 76.9312 38.6623 78.301 36.5904C76.4595 37.4236 74.4632 38.0058 72.3547 38.2942C74.4908 36.9913 76.0987 34.979 76.8383 32.5795C74.8514 33.7743 72.6441 34.6557 70.2801 35.1595C68.3529 33.2055 65.6398 32.025 62.6436 32.0745C56.9099 32.1692 52.3236 36.8081 52.4094 42.4261C52.4216 43.2287 52.5198 44.0088 52.7251 44.7448C44.0749 44.4651 36.3609 40.5363 31.1366 34.4538C30.2757 35.9679 29.7852 37.7295 29.8135 39.5881C29.8674 43.1152 31.7473 46.2108 34.5772 47.9809C32.8737 47.9668 31.2715 47.5285 29.8588 46.7913C29.8595 46.8335 29.8601 46.8758 29.8607 46.918C29.9362 51.8602 33.5769 55.8985 38.3551 56.7703C37.4965 57.0168 36.5715 57.1589 35.6231 57.1745C34.9549 57.1856 34.3073 57.1329 33.6587 57.0168C35.0354 61.0503 38.9171 63.9227 43.4666 63.9321C39.9515 66.7153 35.4928 68.4157 30.6214 68.4961C29.7807 68.51 28.961 68.4813 28.1402 68.3892C32.7329 71.2287 38.2337 72.828 44.0968 72.7312Z" fill="white"/>
<rect x="-4.06051" y="-3.93349" width="94.2328" height="92.4921" rx="46.2461" transform="matrix(0.999865 -0.0165089 0.0152632 0.999882 7.94999 8.72187)" stroke="#0A0028" stroke-width="8"/>
</g>
</svg>
